<svg xmlns="http://www.w3.org/2000/svg" viewBox="0 0 800 500" role="img" aria-labelledby="title desc">
  <title id="title">Laboratory</title>
  <desc id="desc">Stylized laboratory illustration with desks and equipment.</desc>
  <defs>
    <linearGradient id="bg" x1="0" y1="0" x2="1" y2="1">
      <stop offset="0%" stop-color="#0f172a"/>
      <stop offset="100%" stop-color="#0ea5e9"/>
    </linearGradient>
    <linearGradient id="accent" x1="0" y1="0" x2="1" y2="1">
      <stop offset="0%" stop-color="#22c55e"/>
      <stop offset="100%" stop-color="#a3e635"/>
    </linearGradient>
  </defs>
  <rect width="800" height="500" rx="36" fill="url(#bg)"/>
  <circle cx="650" cy="92" r="58" fill="rgba(255,255,255,0.12)"/>
  <circle cx="130" cy="410" r="100" fill="rgba(255,255,255,0.08)"/>
  <rect x="95" y="285" width="610" height="110" rx="20" fill="rgba(255,255,255,0.14)"/>
  <rect x="150" y="200" width="86" height="130" rx="14" fill="#e2e8f0"/>
  <rect x="270" y="170" width="130" height="160" rx="16" fill="#f8fafc"/>
  <rect x="430" y="210" width="90" height="120" rx="14" fill="#e2e8f0"/>
  <rect x="550" y="185" width="110" height="145" rx="16" fill="#f8fafc"/>
  <rect x="175" y="142" width="20" height="64" rx="10" fill="url(#accent)"/>
  <rect x="315" y="106" width="20" height="64" rx="10" fill="#f97316"/>
  <rect x="585" y="132" width="20" height="62" rx="10" fill="#f43f5e"/>
  <circle cx="196" cy="120" r="26" fill="#fff7ed"/>
  <circle cx="335" cy="86" r="20" fill="#ecfeff"/>
  <circle cx="595" cy="110" r="22" fill="#fdf2f8"/>
  <text x="56" y="458" fill="rgba(255,255,255,0.92)" font-family="Segoe UI, Arial, sans-serif" font-size="38" font-weight="700">LAB</text>
</svg>